<svg id="Capa_1" data-name="Capa 1" xmlns="http://www.w3.org/2000/svg" viewBox="0 0 1080 720"><defs><style>.cls-1{fill:#c6c4c2;}.cls-2,.cls-3{font-size:128.46px;font-family:NexaSlabRegularFREE, Nexa Slab Regular FREE;}.cls-2,.cls-3,.cls-4{fill:#1d1d1b;}.cls-3{letter-spacing:-0.03em;}.cls-5{fill:#fccd8b;}.cls-12,.cls-6{fill:#e62b32;}.cls-7{fill:#575656;}.cls-8{fill:#fff;}.cls-9{fill:#e30613;}.cls-10{fill:#efbe35;}.cls-11{fill:#009fe3;}.cls-12{stroke:#000;stroke-miterlimit:10;}</style></defs><rect class="cls-1" width="1080" height="720"/><text class="cls-2" transform="translate(434.85 340.86)">CINE</text><text class="cls-3" transform="translate(434.85 450.3)">P</text><text class="cls-2" transform="translate(618.23 450.3)">LAR</text><path class="cls-4" d="M397.69,247.75V450.3c0,4.83,7.5,4.84,7.5,0V247.75c0-4.83-7.5-4.84-7.5,0Z"/><rect class="cls-5" x="230.37" y="258.45" width="126.6" height="100.27"/><path d="M357,356.22H235.54c-1.63,0-3.33-.14-5,0h-.21l2.5,2.5V262.56c0-1.29.11-2.65,0-3.94v-.17l-2.5,2.5H351.8c1.64,0,3.33.13,5,0H357l-2.5-2.5v87.92c0,4.05-.15,8.13,0,12.17a1.08,1.08,0,0,1,0,.18c0,3.21,5,3.22,5,0V270.79c0-4,.16-8.13,0-12.17v-.17A2.53,2.53,0,0,0,357,256h-111c-5.11,0-10.25-.19-15.36,0h-.21a2.53,2.53,0,0,0-2.5,2.5v87.92c0,4.05-.15,8.13,0,12.17a1.08,1.08,0,0,1,0,.18,2.54,2.54,0,0,0,2.5,2.5h111c5.1,0,10.25.18,15.35,0a1.47,1.47,0,0,1,.21,0C360.19,361.22,360.2,356.22,357,356.22Z"/><polygon class="cls-6" points="283.32 327.45 283.32 288.53 315.68 306.95 283.32 327.45"/><path d="M285.82,327.45V288.53l-3.76,2.16,28.39,16.16,4,2.26v-4.32l-28.29,17.92-4.07,2.58c-2.71,1.72-.21,6,2.52,4.32l28.29-17.93,4.07-2.57a2.53,2.53,0,0,0,0-4.32l-28.39-16.16-4-2.26a2.53,2.53,0,0,0-3.76,2.16v38.92C280.82,330.67,285.82,330.67,285.82,327.45Z"/><rect class="cls-7" x="183.56" y="324.33" width="92.25" height="65.91"/><path d="M275.81,387.75H187.33c-1.18,0-2.43-.11-3.61,0h-.16l2.5,2.5V324.33l-2.5,2.5H272c1.19,0,2.43.11,3.62,0h.16l-2.5-2.5v65.92c0,3.21,5,3.22,5,0V324.33a2.54,2.54,0,0,0-2.5-2.5H194.92c-3.72,0-7.48-.14-11.2,0h-.16a2.54,2.54,0,0,0-2.5,2.5v65.92a2.54,2.54,0,0,0,2.5,2.5h80.88c3.73,0,7.48.14,11.21,0h.16C279,392.75,279,387.75,275.81,387.75Z"/><rect class="cls-7" x="181.12" y="293.74" width="92.23" height="22.8" transform="translate(-52.95 47.76) rotate(-10.75)"/><path d="M180.47,305l9-1.71,21.6-4.1,26.26-5,22.61-4.3,7.45-1.41c1.17-.22,2.41-.36,3.55-.68l.16,0L268,286l3.72,19.56.54,2.83,1.74-3.07L265,307l-21.6,4.1-26.26,5-22.61,4.29-7.45,1.41c-1.17.23-2.41.36-3.55.68l-.16,0,3.08,1.74-3.72-19.55-.54-2.84a2.53,2.53,0,0,0-3.07-1.75,2.57,2.57,0,0,0-1.75,3.08l3.72,19.56.53,2.83a2.54,2.54,0,0,0,3.08,1.75l9-1.71,21.59-4.1,26.27-5,22.6-4.29c3.64-.69,7.41-1.17,11-2.09l.16,0a2.56,2.56,0,0,0,1.75-3.08l-3.71-19.55-.54-2.84a2.56,2.56,0,0,0-3.08-1.75l-9,1.71-21.59,4.1-26.27,5L190.3,298c-3.64.69-7.41,1.17-11,2.09l-.16,0a2.53,2.53,0,0,0-1.75,3.08A2.56,2.56,0,0,0,180.47,305Z"/><polygon class="cls-8" points="203.37 298.07 195.02 322.86 214.45 319.17 221.36 294.65 203.37 298.07"/><path d="M201,297.4l-7.29,21.65-1.06,3.14c-.65,1.95,1.34,3.41,3.08,3.08l19.43-3.69a2.46,2.46,0,0,0,1.74-1.75l6-21.42.87-3.09a2.53,2.53,0,0,0-3.07-3.08l-18,3.42a2.52,2.52,0,0,0-1.74,3.07,2.55,2.55,0,0,0,3.07,1.75l18-3.42L219,294l-6,21.42L212,318.5l1.75-1.74-19.43,3.69,3.07,3.07,7.29-21.64,1.06-3.15C206.81,295.68,202,294.37,201,297.4Z"/><polygon class="cls-8" points="240.38 291.04 232.03 315.83 251.46 312.14 258.37 287.62 240.38 291.04"/><path d="M238,290.37,230.68,312l-1.06,3.14c-.65,1.95,1.34,3.41,3.08,3.08l19.43-3.69a2.46,2.46,0,0,0,1.74-1.75l6-21.42.87-3.09a2.53,2.53,0,0,0-3.07-3.08l-18,3.42A2.52,2.52,0,0,0,238,291.7a2.55,2.55,0,0,0,3.07,1.75L259,290,256,287l-6,21.42-.87,3.09,1.75-1.74-19.43,3.69,3.07,3.07,7.29-21.64,1.06-3.15C243.82,288.65,239,287.34,238,290.37Z"/><path d="M191.93,345.11h41.51c3.22,0,3.23-5,0-5H191.93c-3.22,0-3.22,5,0,5Z"/><path d="M192,359.6h28.51c3.22,0,3.22-5,0-5H192c-3.21,0-3.22,5,0,5Z"/><polygon class="cls-9" points="310.64 433.91 242.74 433.91 231.44 368.04 320.36 368.04 310.64 433.91"/><path d="M310.65,431.41H242.74l2.41,1.83L241.32,411l-6.08-35.49-1.39-8.09-2.41,3.17h85.29c1.14,0,2.34.1,3.48,0a.75.75,0,0,1,.15,0L318,367.37l-3.28,22.24-5.23,35.47-1.21,8.16a2.6,2.6,0,0,0,1.75,3.08,2.52,2.52,0,0,0,3.08-1.75l3.28-22.24,5.23-35.47,1.2-8.16a2.54,2.54,0,0,0-2.41-3.16h-78c-3.59,0-7.2-.14-10.78,0h-.16A2.54,2.54,0,0,0,229,368.7l3.82,22.3,6.09,35.49,1.38,8.08a2.53,2.53,0,0,0,2.42,1.84h67.91C313.86,436.41,313.87,431.41,310.65,431.41Z"/><polygon class="cls-8" points="252.84 368.04 257.22 433.91 268.05 433.91 265.42 368.04 252.84 368.04"/><path d="M250.34,368l1.48,22.28,2.36,35.49.54,8.1a2.55,2.55,0,0,0,2.5,2.5h10.83a2.52,2.52,0,0,0,2.5-2.5l-.89-22.38-1.42-35.35-.32-8.14a2.55,2.55,0,0,0-2.5-2.5H252.84c-3.22,0-3.22,5,0,5h12.58l-2.5-2.5.89,22.37,1.42,35.36.32,8.14,2.5-2.5H257.22l2.5,2.5-1.48-22.28-2.36-35.49-.54-8.1a2.56,2.56,0,0,0-2.5-2.5A2.51,2.51,0,0,0,250.34,368Z"/><polygon class="cls-8" points="300.47 368.04 296.09 433.91 285.25 433.91 287.89 368.04 300.47 368.04"/><path d="M298,368l-1.48,22.28-2.36,35.49-.54,8.1,2.5-2.5H285.25l2.5,2.5.9-22.38,1.41-35.35.33-8.14-2.5,2.5h12.58c3.22,0,3.22-5,0-5H287.89a2.54,2.54,0,0,0-2.5,2.5l-.9,22.37-1.41,35.36-.33,8.14a2.53,2.53,0,0,0,2.5,2.5h10.84a2.55,2.55,0,0,0,2.5-2.5l1.48-22.28,2.36-35.49L303,368a2.5,2.5,0,1,0-5,0Z"/><path class="cls-10" d="M231.34,367.34H320.1s8.84-18.77-10.91-18.13c0,0-2.55-13.56-15.58-9.9,0,0-7-11.83-17.5-2.75,0,0-9.62-8.05-17.58,2.75,0,0-13.33-3.38-15.13,8.62C243.4,347.93,223.52,347.55,231.34,367.34Z"/><path d="M231.34,369.84h77.81c3.59,0,7.21.14,10.79,0h.16a2.45,2.45,0,0,0,2.16-1.24c2.93-6.24,4-15.19-2.54-19.57-3-2-7-2.41-10.53-2.32l2.41,1.84a17.76,17.76,0,0,0-3.67-7.58c-3.7-4.58-9.5-5.56-15-4.08l2.82,1.15a16.52,16.52,0,0,0-6-5.84,11.67,11.67,0,0,0-6.76-1.52,15.92,15.92,0,0,0-8.67,4.11h3.53a15.57,15.57,0,0,0-7.26-3.38c-5.94-1-10.76,2-14.24,6.63l2.82-1.15a19.6,19.6,0,0,0-8.42-.14A12.35,12.35,0,0,0,241,347.27l2.41-1.84c-6.91-.11-14.82,3.52-16.12,10.93-.7,4,.21,7.95,1.65,11.64a2.58,2.58,0,0,0,3.08,1.75,2.51,2.51,0,0,0,1.74-3.08,19.88,19.88,0,0,1-1.69-8.65c0-.62-.06.15.06-.43,0-.24.09-.48.15-.72s.14-.52.23-.77.09-.24.13-.37c.16-.45-.13.26,0,0s.42-.81.67-1.2c.1-.14.55-.69.14-.2.15-.17.29-.35.45-.52.32-.33.66-.63,1-.92-.36.3-.14.11.1-.06l.63-.4c.35-.21.71-.41,1.08-.59l.51-.23c-.66.3,0,0,.22-.07a18.39,18.39,0,0,1,2.3-.68l1-.2.49-.08c.6-.1-.45,0-.08,0,.75-.05,1.5-.16,2.25-.15a2.51,2.51,0,0,0,2.41-1.83,12.09,12.09,0,0,1,1-3.34,8,8,0,0,1,.8-1.27c-.28.35.23-.23.3-.3s.32-.31.49-.47c.42-.41-.09,0,.27-.23a6.49,6.49,0,0,1,.55-.36,8.73,8.73,0,0,1,1.14-.58c-.53.22.17-.05.28-.09l.6-.18c.42-.12.85-.2,1.29-.28.1,0,.77-.09.11,0l.58-.05c.4,0,.8-.05,1.2-.05a19.38,19.38,0,0,1,2,.1l.41,0c.49,0-.66-.12-.12,0l.62.1.54.12a2.62,2.62,0,0,0,2.82-1.15,11.18,11.18,0,0,1,5-4,6.45,6.45,0,0,1,2.3-.44c.43,0,.85,0,1.27.05s-.08,0,.19,0l.58.11a14.53,14.53,0,0,1,2.12.68c-.52-.22.3.15.46.24s.46.24.69.37.75.46,1.11.71c.61.41-.21-.19,0,0a2.57,2.57,0,0,0,3.53,0,13.19,13.19,0,0,1,3.27-2.09,7.38,7.38,0,0,1,2.41-.59,6.47,6.47,0,0,1,4.27,1.22l.46.3s.61.47.17.12c.29.23.57.48.84.73a15,15,0,0,1,1.34,1.42l.24.29c.35.38-.34-.47-.06-.08l.34.47c.1.15.2.3.29.46a2.57,2.57,0,0,0,2.83,1.15,10.1,10.1,0,0,1,6.76.07c-.46-.19.2.09.24.11.23.12.46.24.68.38s.43.27.64.41c.57.39-.36-.32.16.13a11,11,0,0,1,1.05,1l.4.45c.32.38-.21-.33.15.19a17.67,17.67,0,0,1,1.28,2.13q.23.44.42.9c-.32-.73.1.28.17.48a13.91,13.91,0,0,1,.55,1.91,2.5,2.5,0,0,0,2.41,1.83,21.39,21.39,0,0,1,4.33.24,14.63,14.63,0,0,1,1.84.48c.13,0,.79.3.37.12.29.13.58.27.86.43l.6.37.32.23c-.07-.06-.38-.34-.05,0s.65.63,1,1-.26-.38-.08-.09a1.7,1.7,0,0,1,.15.22c.12.19.24.38.35.59s.32.65.17.31.13.38.17.5c.12.37.2.76.29,1.14.14.67,0-.2,0,.17s.05.45.06.68a16.2,16.2,0,0,1-.08,2.51c-.06.68.06-.23,0,.14,0,.18-.06.37-.1.55-.07.41-.15.81-.25,1.21-.16.67-.35,1.32-.56,2s-.38,1.07-.58,1.59.3-.64,0,.07l2.16-1.24H242.29c-3.58,0-7.21-.14-10.79,0h-.16C228.12,364.84,228.12,369.84,231.34,369.84Z"/><path class="cls-8" d="M612.2,402.84,586.36,376.5a6.25,6.25,0,0,0-4.49-1.91h-15.1a6.23,6.23,0,0,0-4.49,1.91l-25.84,26.34a14.87,14.87,0,0,0-3.21,15.47l11.74,30a4.6,4.6,0,0,0,4.3,3h50.1a4.6,4.6,0,0,0,4.3-3l11.74-30A14.87,14.87,0,0,0,612.2,402.84Z"/><path d="M540.84,399.61s4.39,9.86,10.85,13.12c6.13,3.09,10.06.8,11.64-.53a16,16,0,0,1,2.27-1.65c1-.59,2.44-1.45,4.1-2.48,1.9-1.18,1.6-6.54,1.6-6.54l.3-26.3s-5.14-.77-7.48,1.66S540.84,399.61,540.84,399.61Z"/><circle class="cls-8" cx="560.88" cy="402.99" r="3.31"/><path d="M543.3,356.93l8.79,22.19a3.66,3.66,0,0,1-.81,3.94l-16.8,17a.42.42,0,0,1-.71-.31,138.22,138.22,0,0,1,8.66-42.78A.47.47,0,0,1,543.3,356.93Z"/><path d="M546.73,358.92l7.32,17.8a1.22,1.22,0,0,0,2,.39l3.12-3.19a2.43,2.43,0,0,0,0-3.45L547,358.75A.16.16,0,0,0,546.73,358.92Z"/><path d="M581.87,377.59a3.28,3.28,0,0,1,2.35,1L610,404.92a11.93,11.93,0,0,1,2.56,12.32l-11.73,30,0,0a1.58,1.58,0,0,1-1.48,1h-50.1a1.6,1.6,0,0,1-1.49-1l0,0-11.73-30a11.93,11.93,0,0,1,2.55-12.3l25.87-26.36a3.22,3.22,0,0,1,2.32-1h15.1m0-3h-15.1a6.23,6.23,0,0,0-4.49,1.91l-25.84,26.34a14.87,14.87,0,0,0-3.21,15.47l11.74,30a4.6,4.6,0,0,0,4.3,3h50.1a4.6,4.6,0,0,0,4.3-3l11.74-30a14.87,14.87,0,0,0-3.21-15.47L586.36,376.5a6.25,6.25,0,0,0-4.49-1.91Z"/><path d="M579.33,416h-10a5.11,5.11,0,0,0-5.11,5.11V423a5.39,5.39,0,0,0,1.86,4.08l6.73,5.81a2.3,2.3,0,0,0,1.48.55h.1a2.27,2.27,0,0,0,1.47-.55l6.73-5.81a5.37,5.37,0,0,0,1.87-4.08v-1.93A5.11,5.11,0,0,0,579.33,416Z"/><path d="M579.33,415.35c-3.24,0-6.49,0-9.73,0a5.85,5.85,0,0,0-5.86,4.34,12.93,12.93,0,0,0-.17,3.17,6.23,6.23,0,0,0,1.4,4,228.34,228.34,0,0,0,7.77,6.77c2,1.22,3.55-.29,5-1.51l4.82-4.16a7,7,0,0,0,2-2.53,9.58,9.58,0,0,0,.52-4,5.87,5.87,0,0,0-5.74-6.07c-.8,0-.8,1.22,0,1.25a4.54,4.54,0,0,1,3.8,2.11,5.71,5.71,0,0,1,.69,3.24,6.35,6.35,0,0,1-.7,3.53,6.85,6.85,0,0,1-1.49,1.6l-4.13,3.57c-1.08.92-2.64,2.9-4.2,1.85a36.13,36.13,0,0,1-3.12-2.68c-1.2-1-2.41-2.06-3.6-3.11-1.73-1.53-1.81-3.5-1.76-5.63.07-2.8,2.3-4.48,5-4.48h9.55A.63.63,0,0,0,579.33,415.35Z"/><path d="M607.8,399.61s-4.39,9.86-10.85,13.12c-6.13,3.09-10.06.8-11.64-.53a16,16,0,0,0-2.27-1.65c-1-.59-2.44-1.45-4.1-2.48-1.9-1.18-1.6-6.54-1.6-6.54l-.3-26.3s5.14-.77,7.48,1.66S607.8,399.61,607.8,399.61Z"/><circle class="cls-11" cx="587.75" cy="402.99" r="3.31"/><path d="M605.33,356.93l-8.78,22.19a3.66,3.66,0,0,0,.81,3.94l16.8,17a.42.42,0,0,0,.71-.31,138,138,0,0,0-8.67-42.78A.47.47,0,0,0,605.33,356.93Z"/><path d="M601.91,358.92l-7.32,17.8a1.22,1.22,0,0,1-2,.39l-3.12-3.19a2.43,2.43,0,0,1,0-3.45l12.14-11.72A.16.16,0,0,1,601.91,358.92Z"/><path class="cls-12" d="M566,438.15h16.62a0,0,0,0,1,0,0v7.28a8.31,8.31,0,0,1-8.31,8.31h0a8.31,8.31,0,0,1-8.31-8.31v-7.28A0,0,0,0,1,566,438.15Z"/><path d="M595.42,426.56c-1,3.24-4,5.61-7,7.16-4.64,2.4-10,3.19-15.17,3.21a1.88,1.88,0,0,0,0,3.75h2.11a1.88,1.88,0,0,0,0-3.75c-5.17,0-10.52-.81-15.16-3.21-3-1.55-6-3.92-7-7.16-.72-2.29-4.34-1.31-3.62,1,1.3,4.15,4.69,7.24,8.44,9.25,5.29,2.83,11.39,3.84,17.33,3.87v-3.75h-2.11v3.75c6,0,12-1,17.34-3.87,3.75-2,7.14-5.1,8.44-9.25.72-2.31-2.9-3.3-3.62-1Z"/><path d="M574.32,437.15a19.1,19.1,0,0,1,0,8.8,19,19,0,0,1,0-8.8Z"/></svg>