<svg id="Capa_1" data-name="Capa 1" xmlns="http://www.w3.org/2000/svg" viewBox="0 0 1080 720"><defs><style>.cls-1{fill:#abb7b2;}.cls-2{fill:#009fe3;}.cls-3,.cls-6{fill:#fff;}.cls-4{fill:#1d1d1b;}.cls-5{fill:#e62b32;}.cls-6{stroke:#fff;stroke-miterlimit:10;stroke-width:0.75px;}</style></defs><rect class="cls-1" width="1080" height="720"/><path class="cls-2" d="M513,321.56a36.22,36.22,0,0,1,32.93-36.1l9.24-.9-3.65-8.48a35.82,35.82,0,0,1-2.92-14.24A36.6,36.6,0,0,1,604.43,231l4.69,2.9,3.82-4a56,56,0,0,1,40.65-17.28c31,0,56.24,25,56.24,55.84a55.42,55.42,0,0,1-.93,10L707,288.81l10.19-2.48a36.77,36.77,0,0,1,8.73-1.05c14.6,0,25.5,6,25.5,11.42h13.61c0-14.21-16.81-24.93-39.11-24.93-.86,0-1.73,0-2.6.07.06-1.11.09-2.22.09-3.32,0-38.24-31.34-69.35-69.85-69.35a69.43,69.43,0,0,0-46.7,17.8A50.22,50.22,0,0,0,535,261.84a49.46,49.46,0,0,0,1.38,11.66,49.76,49.76,0,0,0,13.17,97.85h38.88v-13.5H549.54A36.46,36.46,0,0,1,513,321.56Z"/><path class="cls-3" d="M415.52,402.93H427.6c.32,0,.63,0,.94.05-.31,0-.62-.05-.94-.05H405.12c-.32,0-.63,0-.95.05.32,0,.63-.05.95-.05Z"/><path class="cls-3" d="M404,499.14A45.38,45.38,0,0,1,392.54,495c-5.41-2.88-10.42-7.34-12.28-13.36-.78-2.52,3.17-3.59,3.95-1.09,1.54,5,6.11,8.69,10.7,11.08,6.56,3.41,14,4.69,21.39,4.88l.06-.39.06.39c7.34-.19,14.83-1.47,21.38-4.88,4.59-2.39,9.16-6.06,10.71-11.08.78-2.51,4.72-1.43,3.95,1.09-1.86,6-6.87,10.48-12.29,13.36a45.17,45.17,0,0,1-11.44,4.15v12.62a9.17,9.17,0,0,1-.27,2.18h25.21a3.56,3.56,0,0,0,3.33-2.31l0-.06,17.48-44.68a19,19,0,0,0-4.08-19.61l-5.11-5.21c-2.11,4.12-7.74,13.89-15.24,17.67-9.14,4.6-15,1.2-17.34-.79a24.06,24.06,0,0,0-3.38-2.45c-1.49-.88-3.63-2.16-6.11-3.7-2.83-1.75-2.38-9.74-2.38-9.74l-.42-36.85h-8.16l-.42,36.85s.45,8-2.38,9.74c-2.48,1.54-4.62,2.82-6.11,3.7A24.75,24.75,0,0,0,400,459c-2.35,2-8.19,5.39-17.33.79-7.5-3.78-13.13-13.55-15.24-17.66l-5.14,5.23a19,19,0,0,0-4,19.58l17.48,44.68,0,.06a3.56,3.56,0,0,0,3.33,2.31h25.21a9.17,9.17,0,0,1-.27-2.18Zm-3.22-28.63a8.45,8.45,0,0,1,8.48-6.62c4.86,0,9.72,0,14.57,0,5,.12,8.3,4.12,8.3,9,0,2.11.05,4.12-.91,6.07a10.8,10.8,0,0,1-2.86,3.37l-7.14,6.17c-1.92,1.66-4,3.82-6.8,2.36a13,13,0,0,1-2.18-1.74L408.7,486c-1.89-1.63-4-3.17-5.71-5A9,9,0,0,1,400.6,475,21.51,21.51,0,0,1,400.77,470.51Z"/><circle class="cls-3" cx="396.35" cy="445.24" r="4.93" transform="translate(-35.37 34.21) rotate(-4.73)"/><path class="cls-4" d="M357,440.82l25-25.26a5.48,5.48,0,0,0,1.2-5.87l-13.08-33.05a.7.7,0,0,0-1.3,0A205.76,205.76,0,0,0,356,440.37.62.62,0,0,0,357,440.82Z"/><path class="cls-4" d="M386.17,406.11a1.82,1.82,0,0,0,3,.58l4.65-4.76a3.62,3.62,0,0,0-.07-5.13l-18.08-17.46a.24.24,0,0,0-.39.26Z"/><path class="cls-4" d="M434.29,405.79a9.29,9.29,0,0,0-5.75-2.81c-.31,0-.62-.05-.94-.05H405.12c-.32,0-.63,0-.95.05a9.2,9.2,0,0,0-2.69.7,9,9,0,0,0-3.05,2.11L359.94,445a22.16,22.16,0,0,0-4.78,23l17.49,44.71a6.82,6.82,0,0,0,6.4,4.46h26.77a9.13,9.13,0,0,1-1.56-3.28H379.05a3.56,3.56,0,0,1-3.33-2.31l0-.06-17.48-44.68a19,19,0,0,1,4-19.58l5.14-5.23c2.11,4.11,7.74,13.88,15.24,17.66,9.14,4.6,15,1.2,17.33-.79a24.75,24.75,0,0,1,3.39-2.45c1.49-.88,3.63-2.16,6.11-3.7,2.83-1.75,2.38-9.74,2.38-9.74l.42-36.85h8.16l.42,36.85s-.45,8,2.38,9.74c2.48,1.54,4.62,2.82,6.11,3.7a24.06,24.06,0,0,1,3.38,2.45c2.35,2,8.2,5.39,17.34.79,7.5-3.78,13.13-13.55,15.24-17.67l5.11,5.21a19,19,0,0,1,4.08,19.61L457,511.57l0,.06a3.56,3.56,0,0,1-3.33,2.31H428.46a9.13,9.13,0,0,1-1.56,3.28h26.77a6.83,6.83,0,0,0,6.4-4.46l17.49-44.71a22.16,22.16,0,0,0-4.78-23Zm-37.94,44.39a4.94,4.94,0,1,1,4.93-4.94A4.94,4.94,0,0,1,396.35,450.18Zm40,0a4.94,4.94,0,1,1,4.93-4.94A4.93,4.93,0,0,1,436.37,450.18Z"/><path d="M410.28,485.6l3.06,2.64a9,9,0,0,0,1.75,1.4c2.34,1.16,4.59-1.66,6.16-3l6.25-5.4a10,10,0,0,0,2.24-2.47,9.82,9.82,0,0,0,1-5.28,8.76,8.76,0,0,0-1.13-5.1,7.05,7.05,0,0,0-5.8-3.13H409.4c-4,0-7.35,2.78-7.44,7-.06,3.28.08,6.23,2.75,8.57C406.55,482.41,408.42,484,410.28,485.6Z"/><path class="cls-4" d="M403,481.05c1.72,1.81,3.82,3.35,5.71,5l3.53,3.05a13,13,0,0,0,2.18,1.74c2.75,1.46,4.88-.7,6.8-2.36l7.14-6.17a10.8,10.8,0,0,0,2.86-3.37c1-1.95.91-4,.91-6.07,0-4.84-3.27-8.84-8.3-9-4.85,0-9.71,0-14.57,0a8.45,8.45,0,0,0-8.48,6.62,21.51,21.51,0,0,0-.17,4.47A9,9,0,0,0,403,481.05Zm-1-8.83c.09-4.19,3.4-7,7.44-7h14.42a7.05,7.05,0,0,1,5.8,3.13,8.76,8.76,0,0,1,1.13,5.1,9.82,9.82,0,0,1-1,5.28,10,10,0,0,1-2.24,2.47l-6.25,5.4c-1.57,1.35-3.82,4.17-6.16,3a9,9,0,0,1-1.75-1.4l-3.06-2.64c-1.86-1.61-3.73-3.19-5.57-4.81C402,478.45,401.9,475.5,402,472.22Z"/><circle class="cls-2" cx="436.37" cy="445.24" r="4.93" transform="translate(-187.02 438.97) rotate(-45)"/><path class="cls-4" d="M450.67,415.56l25,25.26a.62.62,0,0,0,1.06-.45,205.76,205.76,0,0,0-12.91-63.72.7.7,0,0,0-1.3,0l-13.08,33.05A5.48,5.48,0,0,0,450.67,415.56Z"/><path class="cls-4" d="M443.57,406.69a1.82,1.82,0,0,0,3-.58l10.91-26.51a.24.24,0,0,0-.39-.26L439,396.8a3.61,3.61,0,0,0-.07,5.13Z"/><path class="cls-5" d="M428.73,511.76V499.14a60.62,60.62,0,0,1-10.13,1.37,2,2,0,0,1-.67.12h-1.07a38.75,38.75,0,0,1-.5,8.59h0a38,38,0,0,1-.5-8.58h-1.07a2.11,2.11,0,0,1-.68-.12A60.51,60.51,0,0,1,404,499.14v12.62a9.13,9.13,0,0,0,1.83,5.46,9,9,0,0,0,7.23,3.61h6.62a9.06,9.06,0,0,0,8.79-6.89A9.17,9.17,0,0,0,428.73,511.76Z"/><path class="cls-4" d="M452.46,481.63c.77-2.52-3.17-3.6-3.95-1.09-1.55,5-6.12,8.69-10.71,11.08-6.55,3.41-14,4.69-21.38,4.88l-.06-.39-.06.39c-7.34-.19-14.83-1.47-21.39-4.88-4.59-2.39-9.16-6.06-10.7-11.08-.78-2.5-4.73-1.43-3.95,1.09,1.86,6,6.87,10.48,12.28,13.36A45.38,45.38,0,0,0,404,499.14a60.51,60.51,0,0,0,10.12,1.37,2.11,2.11,0,0,0,.68.12h1.07a38,38,0,0,0,.5,8.58h0a38.75,38.75,0,0,0,.5-8.59h1.07a2,2,0,0,0,.67-.12,60.62,60.62,0,0,0,10.13-1.37A45.17,45.17,0,0,0,440.17,495C445.59,492.11,450.6,487.65,452.46,481.63Z"/><polygon class="cls-6" points="594.45 300.65 594.45 370.73 599.99 370.73 606.27 370.73 641.64 370.73 641.64 359.69 606.27 359.69 606.27 300.65 594.45 300.65"/><path class="cls-6" d="M688.42,303.13a30.33,30.33,0,0,0-27.16,0,22.45,22.45,0,0,0-9,9,28,28,0,0,0-3.19,13.62v19.86a28,28,0,0,0,3.19,13.59,22.4,22.4,0,0,0,9,9,30.42,30.42,0,0,0,27.16,0,22.44,22.44,0,0,0,9-9,27.85,27.85,0,0,0,3.19-13.59V325.76a27.86,27.86,0,0,0-3.19-13.62A22.49,22.49,0,0,0,688.42,303.13Zm0,42.83q0,6.36-3.71,10.22a14.6,14.6,0,0,1-19.76,0A14.09,14.09,0,0,1,661.23,346V325.42q0-6.41,3.74-10.24a14.66,14.66,0,0,1,19.76,0q3.72,3.84,3.71,10.24Z"/><path class="cls-6" d="M757.77,364.63q6.76-6.81,6.76-19.25V300.65H752.7v45.07q0,6.84-3.66,10.6t-10.34,3.76q-6.63,0-10.26-3.76t-3.64-10.6V300.65H713v44.73q0,12.44,6.73,19.25t19,6.82Q751,371.45,757.77,364.63Z"/><path class="cls-6" d="M823.25,307.23q-7.28-6.59-20.58-6.58h-23.3v70.08h23.25q9.06,0,15.29-3.06a21.29,21.29,0,0,0,9.42-8.7,26.64,26.64,0,0,0,3.19-13.35V325.76Q830.52,313.81,823.25,307.23ZM818.35,346q0,6.5-4,10.09T803,359.69H791.19v-48H803q7.32,0,11.35,3.56t4,10.12Z"/><path class="cls-3" d="M321.27,386q-9.12-5.16-21.4-5.17H247.48V516.17h19V463.68h33.41q12.28,0,21.4-5.11a35.9,35.9,0,0,0,14.19-14.43q5.07-9.3,5.07-21.77t-5.07-21.87A36.19,36.19,0,0,0,321.27,386Zm-5.82,53.18q-5.62,6.42-14.93,6.42H266.46V398.92h34.06q9.3,0,14.93,6.42t5.63,17Q321.08,432.79,315.45,439.21Z"/><polygon class="cls-3" points="518.37 380.91 499.39 380.91 499.39 516.21 508.88 516.21 518.37 516.21 586.3 516.21 586.3 498.16 518.37 498.16 518.37 380.91"/><path class="cls-3" d="M647.34,380.91l-49.87,135.3h20.47l10.2-29.68h54.6l10.2,29.68h20.47l-49.87-135.3Zm-13,87.57,21.1-61.42,21.1,61.42Z"/><path class="cls-3" d="M808.19,454.1a34.91,34.91,0,0,0,13.72-13.68,41.22,41.22,0,0,0,4.94-20.52q0-11.82-4.89-20.56a34.58,34.58,0,0,0-13.73-13.64,42.09,42.09,0,0,0-20.65-4.88h-53.7V516.21h19V459h28.26L810,516.21h22.52L801.33,457A37,37,0,0,0,808.19,454.1Zm-19.87-13.17H752.87V398.87h35.45a16.81,16.81,0,0,1,13.31,5.77q5,5.78,5,15.26t-5,15.26A16.78,16.78,0,0,1,788.32,440.93Z"/></svg>