<svg id="Capa_1" data-name="Capa 1" xmlns="http://www.w3.org/2000/svg" viewBox="0 0 593.51 445.52"><defs><style>.cls-1{fill:#fff;}.cls-2{fill:#009fe3;}.cls-3{fill:#e62b32;}</style></defs><path class="cls-1" d="M286.08,381a142.8,142.8,0,0,1-36.57-13.21c-17.2-9.18-32.78-23.38-38.73-42.43-3.31-10.61,13.31-15.11,16.6-4.58,4.63,14.85,18.38,25.74,32.1,32.83,19.85,10.28,42.52,14.07,64.73,14.63,22.2-.56,44.88-4.34,64.72-14.63,13.71-7.11,27.46-18,32.1-32.83,3.29-10.55,19.9-6,16.59,4.58-5.95,19.06-21.53,33.23-38.72,42.43A142,142,0,0,1,362.32,381V407.4a37.92,37.92,0,0,1-2.41,13.23h79.23a7.29,7.29,0,0,0,6.81-4.74l.09-.22,53.82-137.62a54.79,54.79,0,0,0-11.79-56.55L473.2,206.34c-7.56,14-23.92,40.29-45.17,51-28.14,14.18-46.14,3.7-53.39-2.43a76.94,76.94,0,0,0-10.41-7.56c-4.59-2.7-11.2-6.66-18.84-11.4-8.71-5.39-7.32-30-7.32-30L336.81,96.11H311.6L310.34,206s1.38,24.61-7.32,30c-7.65,4.74-14.25,8.7-18.84,11.4a76.42,76.42,0,0,0-10.42,7.56c-7.24,6.13-25.25,16.61-53.39,2.43-21.24-10.71-37.6-37-45.17-51l-15,15.27a54.72,54.72,0,0,0-11.67,56.44l53.82,137.62.08.22a7.29,7.29,0,0,0,6.82,4.74h79.22a37.92,37.92,0,0,1-2.41-13.23Zm-10.4-91.75c3.11-12.5,14.4-19.86,26.85-19.93,14.88-.08,29.78,0,44.66,0,15.57.42,26.26,12.68,26.32,27.87,0,6.3.26,12.48-2.35,18.39-2.1,4.77-5.48,8.29-9.35,11.63l-22.09,19.07c-6.46,5.58-13.73,12.55-22.77,6.94-6.36-3.94-11.92-10.1-17.56-15-5.95-5.14-13-10-18.07-16.09a28.57,28.57,0,0,1-6.43-18.36C274.84,299,274.52,294,275.68,289.28Z"/><circle class="cls-1" cx="262.56" cy="212.68" r="15.2" transform="translate(-73.49 247.95) rotate(-45)"/><path class="cls-2" d="M385.85,197.48a15.2,15.2,0,1,0,15.2,15.2A15.19,15.19,0,0,0,385.85,197.48Z"/><path class="cls-3" d="M362.32,407.4V381a192.88,192.88,0,0,1-30.64,4.14,8.69,8.69,0,0,1-2.64.42h-2.59a87.15,87.15,0,0,1-2.25,24.16h0A87.53,87.53,0,0,1,322,385.59h-2.59a8.81,8.81,0,0,1-2.65-.42A192.92,192.92,0,0,1,286.08,381V407.4a38.12,38.12,0,0,0,76.24,0Z"/><path d="M141.4,199.06l77.11-77.82a16.88,16.88,0,0,0,3.7-18.08L181.9,1.34a2.15,2.15,0,0,0-4,0C143.25,91.73,138.73,177,138.14,197.68A1.9,1.9,0,0,0,141.4,199.06Z"/><path d="M231.21,92.14a5.59,5.59,0,0,0,9.16,1.78l14.34-14.66a11.15,11.15,0,0,0-.23-15.82L198.8,9.66a.74.74,0,0,0-1.2.81Z"/><path d="M498,212,379.43,91.13a28.54,28.54,0,0,0-20.59-8.79H289.57A28.55,28.55,0,0,0,269,91.13L150.39,212a68.25,68.25,0,0,0-14.71,71l53.87,137.74a21,21,0,0,0,19.72,13.72h88a38.21,38.21,0,0,1-8.81-13.77H209.27a7.29,7.29,0,0,1-6.82-4.74l-.08-.22L148.55,278.05a54.72,54.72,0,0,1,11.67-56.44l15-15.27c7.57,14,23.93,40.29,45.17,51,28.14,14.18,46.15,3.7,53.39-2.43a76.42,76.42,0,0,1,10.42-7.56c4.59-2.7,11.19-6.66,18.84-11.4,8.7-5.39,7.32-30,7.32-30L311.6,96.11h25.21L338.07,206s-1.39,24.61,7.32,30c7.64,4.74,14.25,8.7,18.84,11.4a76.94,76.94,0,0,1,10.41,7.56c7.25,6.13,25.25,16.61,53.39,2.43,21.25-10.71,37.61-37,45.17-51l14.87,15.16a54.79,54.79,0,0,1,11.79,56.55L446,415.67l-.09.22a7.29,7.29,0,0,1-6.81,4.74H359.91a38.18,38.18,0,0,1-8.8,13.77h88a21,21,0,0,0,19.72-13.72l53.86-137.74A68.25,68.25,0,0,0,498,212ZM262.56,227.88a15.2,15.2,0,1,1,15.2-15.2A15.2,15.2,0,0,1,262.56,227.88Zm123.29,0a15.2,15.2,0,1,1,15.2-15.2A15.2,15.2,0,0,1,385.85,227.88Z"/><path d="M299.39,338.29c5.64,4.86,11.2,11,17.56,15,9,5.61,16.31-1.36,22.77-6.94l22.09-19.07c3.87-3.34,7.25-6.86,9.35-11.63,2.61-5.91,2.38-12.09,2.35-18.39-.06-15.19-10.75-27.45-26.32-27.87-14.88,0-29.78-.08-44.66,0-12.45.07-23.74,7.43-26.85,19.93-1.16,4.69-.84,9.76-.79,14.56a28.57,28.57,0,0,0,6.43,18.36C286.39,328.27,293.44,333.15,299.39,338.29Z"/><path d="M429.9,121.24,507,199.06a1.9,1.9,0,0,0,3.26-1.38C509.67,177,505.15,91.73,470.5,1.37a2.15,2.15,0,0,0-4,0L426.2,103.16A16.85,16.85,0,0,0,429.9,121.24Z"/><path d="M408,93.92a5.59,5.59,0,0,0,9.16-1.78L450.8,10.47a.74.74,0,0,0-1.2-.81L393.92,63.44a11.16,11.16,0,0,0-.23,15.82Z"/><path d="M398.9,367.82c17.19-9.2,32.77-23.37,38.72-42.43,3.31-10.6-13.3-15.13-16.59-4.58-4.64,14.86-18.39,25.72-32.1,32.83-19.84,10.29-42.52,14.07-64.72,14.63-22.21-.56-44.88-4.35-64.73-14.63-13.72-7.09-27.47-18-32.1-32.83-3.29-10.53-19.91-6-16.6,4.58,5.95,19.05,21.53,33.25,38.73,42.43A142.8,142.8,0,0,0,286.08,381a192.92,192.92,0,0,0,30.63,4.14,8.81,8.81,0,0,0,2.65.42H322a87.53,87.53,0,0,0,2.25,24.16h0a87.15,87.15,0,0,0,2.25-24.16H329a8.69,8.69,0,0,0,2.64-.42A192.88,192.88,0,0,0,362.32,381,142,142,0,0,0,398.9,367.82Z"/></svg>