<svg id="Capa_1" data-name="Capa 1" xmlns="http://www.w3.org/2000/svg" viewBox="0 0 585.04 334.69"><defs><style>.cls-1{fill:#009fe3;}.cls-2,.cls-5{fill:#fff;}.cls-3{fill:#1d1d1b;}.cls-4{fill:#e62b32;}.cls-5{stroke:#fff;stroke-miterlimit:10;stroke-width:0.75px;}</style></defs><path class="cls-1" d="M265.52,128.91A36.23,36.23,0,0,1,298.45,92.8l9.24-.89L304,83.43a35.84,35.84,0,0,1-2.92-14.25A36.59,36.59,0,0,1,357,38.37l4.69,2.9,3.82-4A56,56,0,0,1,406.11,20c31,0,56.24,25,56.24,55.83a56.42,56.42,0,0,1-.92,10l-1.88,10.25,10.19-2.48a36.86,36.86,0,0,1,8.74-1.05c14.59,0,25.49,6,25.49,11.42h13.61c0-14.22-16.81-24.93-39.1-24.93-.87,0-1.74,0-2.6.07.05-1.12.08-2.23.08-3.33,0-38.23-31.33-69.34-69.85-69.34a69.4,69.4,0,0,0-46.7,17.8,49.94,49.94,0,0,0-70.52,56.52,49.77,49.77,0,0,0,13.17,97.86h38.88V165.19H302.06A36.45,36.45,0,0,1,265.52,128.91Z"/><path class="cls-2" d="M168.05,210.28h12.07a7.3,7.3,0,0,1,.94.05,7.3,7.3,0,0,0-.94-.05H157.64a7.3,7.3,0,0,0-.94.05,7.3,7.3,0,0,1,.94-.05Z"/><path class="cls-2" d="M156.51,306.49a45.77,45.77,0,0,1-11.45-4.15c-5.41-2.89-10.42-7.34-12.28-13.36-.78-2.53,3.17-3.6,3.95-1.09,1.55,5,6.12,8.69,10.71,11.07,6.55,3.41,14,4.7,21.38,4.88l.06-.39.06.39c7.34-.18,14.83-1.47,21.39-4.88,4.59-2.38,9.15-6.06,10.7-11.07.78-2.51,4.73-1.43,3.95,1.09-1.86,6-6.87,10.47-12.28,13.36a45.77,45.77,0,0,1-11.45,4.15v12.62a9.23,9.23,0,0,1-.27,2.18h25.21a3.56,3.56,0,0,0,3.33-2.32l0-.05L227,274.23a19,19,0,0,0-4.08-19.61l-5.11-5.2c-2.11,4.11-7.74,13.88-15.24,17.66-9.14,4.61-15,1.21-17.34-.78a25,25,0,0,0-3.38-2.46c-1.49-.87-3.63-2.16-6.11-3.7-2.83-1.75-2.38-9.74-2.38-9.74L173,213.55H164.8l-.42,36.85s.45,8-2.38,9.74c-2.48,1.54-4.62,2.83-6.11,3.7a25,25,0,0,0-3.38,2.46c-2.36,2-8.2,5.39-17.34.78-7.5-3.78-13.13-13.55-15.24-17.66l-5.14,5.23a19,19,0,0,0-4.05,19.58l17.48,44.69,0,.05a3.56,3.56,0,0,0,3.33,2.32h25.21a9.23,9.23,0,0,1-.27-2.18Zm-3.22-28.63a8.46,8.46,0,0,1,8.49-6.63c4.85,0,9.71,0,14.56,0,5,.13,8.3,4.12,8.3,9,0,2.11.05,4.13-.91,6.08a10.74,10.74,0,0,1-2.86,3.36l-7.14,6.17c-1.92,1.66-4,3.83-6.8,2.37a13.07,13.07,0,0,1-2.18-1.75l-3.53-3.05a75.11,75.11,0,0,1-5.71-5,8.92,8.92,0,0,1-2.39-6.07A21.44,21.44,0,0,1,153.29,277.86Z"/><circle class="cls-2" cx="148.87" cy="252.59" r="4.93" transform="translate(-20.33 13.14) rotate(-4.73)"/><path class="cls-3" d="M109.54,248.17l25-25.26a5.48,5.48,0,0,0,1.2-5.87L122.69,184a.7.7,0,0,0-1.3,0,205.85,205.85,0,0,0-12.91,63.73A.62.62,0,0,0,109.54,248.17Z"/><path class="cls-3" d="M138.69,213.46a1.82,1.82,0,0,0,3,.58l4.65-4.76a3.62,3.62,0,0,0-.07-5.14l-18.08-17.46a.24.24,0,0,0-.39.27Z"/><path class="cls-3" d="M186.81,213.13a9.28,9.28,0,0,0-3.05-2.11,9.17,9.17,0,0,0-2.7-.69,7.3,7.3,0,0,0-.94-.05H157.64a7.3,7.3,0,0,0-.94.05,9.2,9.2,0,0,0-5.75,2.8l-38.49,39.23a22.16,22.16,0,0,0-4.78,23l17.49,44.71a6.82,6.82,0,0,0,6.4,4.45h26.77a9.16,9.16,0,0,1-1.56-3.27H131.57a3.56,3.56,0,0,1-3.33-2.32l0-.05-17.48-44.69a19,19,0,0,1,4.05-19.58l5.14-5.23c2.11,4.11,7.74,13.88,15.24,17.66,9.14,4.61,15,1.21,17.34-.78a25,25,0,0,1,3.38-2.46c1.49-.87,3.63-2.16,6.11-3.7,2.83-1.75,2.38-9.74,2.38-9.74l.42-36.85H173l.42,36.85s-.45,8,2.38,9.74c2.48,1.54,4.62,2.83,6.11,3.7a25,25,0,0,1,3.38,2.46c2.36,2,8.2,5.39,17.34.78,7.5-3.78,13.13-13.55,15.24-17.66l5.11,5.2A19,19,0,0,1,227,274.23l-17.48,44.69,0,.05a3.56,3.56,0,0,1-3.33,2.32H181a9.16,9.16,0,0,1-1.56,3.27h26.77a6.81,6.81,0,0,0,6.4-4.45l17.49-44.71a22.16,22.16,0,0,0-4.78-23Zm-37.94,44.39a4.94,4.94,0,1,1,4.93-4.93A4.93,4.93,0,0,1,148.87,257.52Zm40,0a4.94,4.94,0,1,1,4.94-4.93A4.93,4.93,0,0,1,188.89,257.52Z"/><path d="M162.8,292.94l3.06,2.64a8.86,8.86,0,0,0,1.76,1.41c2.33,1.15,4.58-1.67,6.15-3l6.25-5.4a9.77,9.77,0,0,0,2.25-2.46,9.91,9.91,0,0,0,1-5.28,8.73,8.73,0,0,0-1.14-5.1,7,7,0,0,0-5.8-3.13c-4.8,0-9.61,0-14.42,0-4,0-7.35,2.77-7.43,7-.07,3.28.08,6.24,2.74,8.58C159.07,289.75,160.94,291.34,162.8,292.94Z"/><path class="cls-3" d="M155.51,288.39a75.11,75.11,0,0,0,5.71,5l3.53,3.05a13.07,13.07,0,0,0,2.18,1.75c2.75,1.46,4.88-.71,6.8-2.37l7.14-6.17a10.74,10.74,0,0,0,2.86-3.36c1-1.95.91-4,.91-6.08,0-4.84-3.27-8.83-8.3-9-4.85,0-9.71,0-14.56,0a8.46,8.46,0,0,0-8.49,6.63,21.44,21.44,0,0,0-.17,4.46A8.92,8.92,0,0,0,155.51,288.39Zm-1-8.83c.08-4.19,3.39-6.95,7.43-7,4.81,0,9.62,0,14.42,0a7,7,0,0,1,5.8,3.13,8.73,8.73,0,0,1,1.14,5.1,9.91,9.91,0,0,1-1,5.28,9.77,9.77,0,0,1-2.25,2.46l-6.25,5.4c-1.57,1.35-3.82,4.17-6.15,3a8.86,8.86,0,0,1-1.76-1.41l-3.06-2.64c-1.86-1.6-3.73-3.19-5.57-4.8C154.57,285.8,154.42,282.84,154.49,279.56Z"/><circle class="cls-1" cx="188.89" cy="252.59" r="4.93" transform="translate(-123.28 207.55) rotate(-45)"/><path class="cls-3" d="M203.19,222.91l25,25.26a.62.62,0,0,0,1.06-.45A205.85,205.85,0,0,0,216.37,184a.7.7,0,0,0-1.3,0L202,217A5.48,5.48,0,0,0,203.19,222.91Z"/><path class="cls-3" d="M196.09,214a1.82,1.82,0,0,0,3-.58L210,187a.24.24,0,0,0-.39-.27l-18.08,17.46a3.62,3.62,0,0,0-.07,5.14Z"/><path class="cls-4" d="M181.25,319.11V306.49a61.56,61.56,0,0,1-10.12,1.37,2.42,2.42,0,0,1-.68.11h-1.07a38.71,38.71,0,0,1-.5,8.59h0a38.71,38.71,0,0,1-.5-8.59h-1.07a2.42,2.42,0,0,1-.68-.11,61.56,61.56,0,0,1-10.12-1.37v12.62a9.09,9.09,0,0,0,1.83,5.45,9.06,9.06,0,0,0,7.23,3.61h6.62a9,9,0,0,0,7.23-3.61,9.09,9.09,0,0,0,1.83-5.45Z"/><path class="cls-3" d="M205,289c.78-2.52-3.17-3.6-3.95-1.09-1.55,5-6.11,8.69-10.7,11.07-6.56,3.41-14.05,4.7-21.39,4.88l-.06-.39-.06.39c-7.34-.18-14.83-1.47-21.38-4.88-4.59-2.38-9.16-6.06-10.71-11.07-.78-2.51-4.73-1.44-3.95,1.09,1.86,6,6.87,10.47,12.28,13.36a45.77,45.77,0,0,0,11.45,4.15,61.56,61.56,0,0,0,10.12,1.37,2.42,2.42,0,0,0,.68.11h1.07a38.71,38.71,0,0,0,.5,8.59h0a38.71,38.71,0,0,0,.5-8.59h1.07a2.42,2.42,0,0,0,.68-.11,61.56,61.56,0,0,0,10.12-1.37,45.77,45.77,0,0,0,11.45-4.15C198.11,299.45,203.12,295,205,289Z"/><polygon class="cls-5" points="346.97 107.99 346.97 178.08 352.51 178.08 358.79 178.08 394.17 178.08 394.17 167.04 358.79 167.04 358.79 107.99 346.97 107.99"/><path class="cls-5" d="M440.94,110.48a30.33,30.33,0,0,0-27.16,0,22.31,22.31,0,0,0-9,9,27.81,27.81,0,0,0-3.2,13.62V153a27.87,27.87,0,0,0,3.2,13.6,22.32,22.32,0,0,0,9,9,30.42,30.42,0,0,0,27.16,0,22.44,22.44,0,0,0,9-9,27.86,27.86,0,0,0,3.19-13.6V133.11a27.81,27.81,0,0,0-3.19-13.62A22.43,22.43,0,0,0,440.94,110.48Zm0,42.82q0,6.36-3.71,10.22a14.57,14.57,0,0,1-19.76,0,14.07,14.07,0,0,1-3.74-10.22V132.77q0-6.41,3.74-10.24a14.63,14.63,0,0,1,19.76,0q3.72,3.82,3.71,10.24Z"/><path class="cls-5" d="M510.3,172q6.75-6.82,6.75-19.26V108H505.23v45.07q0,6.84-3.67,10.61t-10.33,3.75q-6.63,0-10.27-3.75t-3.64-10.61V108H465.5v44.73q0,12.43,6.73,19.26t19,6.82Q503.54,178.8,510.3,172Z"/><path class="cls-5" d="M575.77,114.57Q568.49,108,555.19,108h-23.3v70.09h23.25q9.06,0,15.29-3.06a21.24,21.24,0,0,0,9.42-8.7A26.66,26.66,0,0,0,583,153V133.11Q583,121.16,575.77,114.57Zm-4.9,38.78q0,6.51-4,10.1T555.49,167H543.71V119h11.78q7.32,0,11.35,3.57t4,10.12Z"/><path class="cls-2" d="M73.79,193.38q-9.12-5.17-21.4-5.17H0v135.3H19V271H52.39q12.28,0,21.4-5.12A35.88,35.88,0,0,0,88,251.49q5.07-9.3,5.07-21.78T88,207.84A36.17,36.17,0,0,0,73.79,193.38ZM68,246.56Q62.34,253,53,253H19V206.26H53q9.3,0,14.94,6.42t5.63,17Q73.61,240.14,68,246.56Z"/><polygon class="cls-2" points="270.89 188.26 251.91 188.26 251.91 323.56 261.4 323.56 270.89 323.56 338.82 323.56 338.82 305.5 270.89 305.5 270.89 188.26"/><path class="cls-2" d="M399.87,188.26,350,323.56h20.47l10.2-29.69h54.6l10.2,29.69h20.47l-49.87-135.3Zm-13,87.56L408,214.41l21.1,61.41Z"/><path class="cls-2" d="M560.71,261.44a34.76,34.76,0,0,0,13.72-13.67,41.28,41.28,0,0,0,4.94-20.52q0-11.82-4.89-20.57a34.6,34.6,0,0,0-13.72-13.63,42,42,0,0,0-20.66-4.89H486.41v135.4h19V266.33h28.26l28.87,57.23H585l-31.19-59.2A35.74,35.74,0,0,0,560.71,261.44Zm-19.87-13.16H505.39V206.22h35.45A16.78,16.78,0,0,1,554.15,212q5,5.76,5,15.26t-5,15.26A16.81,16.81,0,0,1,540.84,248.28Z"/></svg>